gait_subject_b_1ms
version=1
nRows=35
nColumns=17
InDegrees=yes
endheader
time	ankle_angle_l	ankle_angle_r	hip_adduction_l	hip_adduction_r	hip_flexion_l	hip_flexion_r	hip_rotation_l	hip_rotation_r	knee_angle_l	knee_angle_r	lumbar_bending	lumbar_extemsion	lumbar_rotation
2.74000000	-2.89689766	-10.31971576	-5.25329320	-4.90572366	21.87844776	5.39254088	6.09711465	0.48906486	-21.86709343	-52.36943001	-3.81950904	1.86678215	-0.00841534	0.00000000	0.00000000	0.00000000
2.74200000	-2.76150816	-10.75708122	-5.35285535	-5.00511887	21.76472277	5.79464142	6.13341676	0.51598839	-21.85244789	-52.98518824	-3.90870535	1.90016666	-0.04777140	0.00000000	0.00000000	0.00000000
2.74400000	-2.62700865	-11.18071972	-5.44907946	-5.09917868	21.65212748	6.20036316	6.16656437	0.54543840	-21.83444076	-53.59366457	-3.99485518	1.93679359	-0.08614726	0.00000000	0.00000000	0.00000000
2.74600000	-2.49324891	-11.58896148	-5.54164190	-5.18782555	21.54089980	6.60907601	6.19654976	0.57698394	-21.81349777	-54.19444965	-4.07775195	1.97651153	-0.12349895	0.00000000	0.00000000	0.00000000
2.74800000	-2.36010145	-11.97994359	-5.63043616	-5.27080067	21.43101799	7.02050698	6.22336369	0.61012325	-21.79017007	-54.78699973	-4.15720468	2.01916235	-0.15979205	0.00000000	0.00000000	0.00000000
2.75000000	-2.22742813	-12.35165471	-5.71512607	-5.34818017	21.32259756	7.43418745	6.24710115	0.64443986	-21.76492129	-55.37093408	-4.23304679	2.06457209	-0.19499859	0.00000000	0.00000000	0.00000000
2.75200000	-2.09510446	-12.70195231	-5.79506507	-5.42009719	21.21555591	7.84973531	6.26799929	0.67952946	-21.73829841	-55.94587629	-4.30512102	2.11254791	-0.22909945	0.00000000	0.00000000	0.00000000
2.75400000	-1.96300940	-13.02864376	-5.87074406	-5.48623686	21.11017965	8.26653037	6.28597877	0.71484226	-21.71062785	-56.51163051	-4.37331353	2.16290147	-0.26209943	0.00000000	0.00000000	0.00000000
2.75600000	-1.83104780	-13.32943355	-5.94182398	-5.54667358	21.00631635	8.68437235	6.30126302	0.74996114	-21.68243635	-57.06781841	-4.43751640	2.21542310	-0.29400678	0.00000000	0.00000000	0.00000000
2.75800000	-1.69913910	-13.60204236	-6.00833485	-5.60144475	20.90388954	9.10277848	6.31399371	0.78446342	-21.65417478	-57.61425458	-4.49765514	2.26989047	-0.32484722	0.00000000	0.00000000	0.00000000
2.76000000	-1.56720231	-13.84420053	-6.07012710	-5.65062544	20.80299861	9.52154066	6.32437810	0.81795927	-21.62616460	-58.15064320	-4.55367410	2.32608254	-0.35465987	0.00000000	0.00000000	0.00000000
2.76200000	-1.43518535	-14.05375027	-6.12717864	-5.69422406	20.70360819	9.94013279	6.33261479	0.85005661	-21.59875423	-58.67688598	-4.60554073	2.38375660	-0.38350087	0.00000000	0.00000000	0.00000000
2.76400000	-1.30306278	-14.22863082	-6.17936110	-5.73218681	20.60554030	10.35840586	6.33895527	0.88037824	-21.57232160	-59.19270454	-4.65323844	2.44266800	-0.41144020	0.00000000	0.00000000	0.00000000
2.76600000	-1.17081769	-14.36694962	-6.22654717	-5.76486722	20.50879187	10.77605661	6.34365201	0.90869802	-21.54710371	-59.69792820	-4.69679197	2.50256691	-0.43855851	0.00000000	0.00000000	0.00000000
2.76800000	-1.03846711	-14.46703692	-6.26857707	-5.79258398	20.41316557	11.19273045	6.34698197	0.93481311	-21.52338781	-60.19242455	-4.73624527	2.56319024	-0.46495056	0.00000000	0.00000000	0.00000000
2.77000000	-0.90605177	-14.52749652	-6.30576859	-5.81505165	20.31855652	11.60817894	6.34908795	0.95837637	-21.50136107	-60.67600983	-4.77165468	2.62428203	-0.49073273	0.00000000	0.00000000	0.00000000
2.77200000	-0.77362116	-14.54722588	-6.33801222	-5.83246831	20.22493398	12.02191925	6.35022321	0.97922126	-21.48111798	-61.14863620	-4.80310395	2.68557598	-0.51602710	0.00000000	0.00000000	0.00000000
2.77400000	-0.64125359	-14.52538882	-6.36492706	-5.84516424	20.13207670	12.43404849	6.35071740	0.99726895	-21.46279866	-61.60994672	-4.83069296	2.74681671	-0.54096121	0.00000000	0.00000000	0.00000000
2.77600000	-0.50907146	-14.46156967	-6.38741006	-5.85275307	20.03975985	12.84422505	6.35055564	1.01225366	-21.44648702	-62.05981985	-4.85455340	2.80774827	-0.56568591	0.00000000	0.00000000	0.00000000
2.77800000	-0.37717638	-14.35571977	-6.40538376	-5.85656756	19.94807705	13.25131434	6.34995765	1.02444040	-21.43204240	-62.49858356	-4.87487676	2.86809684	-0.59033948	0.00000000	0.00000000	0.00000000
2.78000000	-0.24573359	-14.20806281	-6.41875035	-5.85528350	19.85636648	13.65664238	6.34916606	1.03339258	-21.41967285	-62.92519972	-4.89175011	2.92764540	-0.61508612	0.00000000	0.00000000	0.00000000
2.78200000	-0.11490088	-14.01930034	-6.42787568	-5.84962338	19.76443772	14.05953667	6.34827440	1.03926546	-21.40927645	-63.33974447	-4.90538185	2.98614283	-0.64007934	0.00000000	0.00000000	0.00000000
2.78400000	0.01514148	-13.79050200	-6.43308969	-5.83910832	19.67188447	14.46006104	6.34737935	1.04190694	-21.40081570	-63.74188042	-4.91593724	3.04336172	-0.66548509	0.00000000	0.00000000	0.00000000
2.78600000	0.14422785	-13.52309415	-6.43422122	-5.82444431	19.57848456	14.85786135	6.34668405	1.04152210	-21.39410540	-64.13151372	-4.92362644	3.09907430	-0.69145577	0.00000000	0.00000000	0.00000000
2.78800000	0.27218229	-13.21889148	-6.43148649	-5.80541019	19.48400325	15.25266011	6.34627730	1.03806893	-21.38892325	-64.50850180	-4.92863931	3.15306765	-0.71815319	0.00000000	0.00000000	0.00000000
2.79000000	0.39883976	-12.88006241	-6.42558916	-5.78182371	19.38850162	15.64389456	6.34610151	1.03152382	-21.38485088	-64.87286866	-4.93119000	3.20514436	-0.74573807	0.00000000	0.00000000	0.00000000
2.79200000	0.52401454	-12.50902446	-6.41703741	-5.75396660	19.29161774	16.03129836	6.34616084	1.02201033	-21.38165365	-65.22448766	-4.93150877	3.25511517	-0.77435607	0.00000000	0.00000000	0.00000000
2.79400000	0.64753131	-12.10836546	-6.40542014	-5.72256112	19.19274427	16.41536372	6.34668419	1.00979733	-21.37919743	-65.56283011	-4.92981502	3.30281335	-0.80413346	0.00000000	0.00000000	0.00000000
2.79600000	0.76923075	-11.68088856	-6.39066076	-5.68884917	19.09144617	16.79634916	6.34780009	0.99528422	-21.37723359	-65.88751789	-4.92636367	3.34808644	-0.83518304	0.00000000	0.00000000	0.00000000
2.79800000	0.88899959	-11.22984634	-6.37363653	-5.65157576	18.98799681	17.17286914	6.34935184	0.97814988	-21.37513462	-66.19904683	-4.92132240	3.39076453	-0.86764741	0.00000000	0.00000000	0.00000000
2.80000000	1.00671208	-10.75839428	-6.35428549	-5.61123162	18.88196749	17.54503941	6.35144171	0.95858038	-21.37263125	-66.49712486	-4.91490136	3.43071309	-0.90162412	0.00000000	0.00000000	0.00000000
2.80200000	1.12228137	-10.26987597	-6.33356543	-5.56771593	18.77352481	17.91210032	6.35389353	0.93657014	-21.36914603	-66.78194873	-4.90731193	3.46780593	-0.93721231	0.00000000	0.00000000	0.00000000
2.80400000	1.23561664	-9.76754815	-6.31094052	-5.52170228	18.66201371	18.27413386	6.35691364	0.91233560	-21.36454221	-67.05326220	-4.89873890	3.50191969	-0.97447638	0.00000000	0.00000000	0.00000000
2.80600000	1.34662607	-9.25467741	-6.28752952	-5.47182156	18.54690420	18.63205104	6.36030900	0.88557276	-21.35864209	-67.31034794	-4.88931730	3.53298486	-1.01349070	0.00000000	0.00000000	0.00000000
2.80800000	1.45532524	-8.73453477	-6.26333822	-5.41950294	18.42867128	18.98445146	6.36409448	0.85662807	-21.35076662	-67.55379826	-4.87926682	3.56088976	-1.05428957	0.00000000	0.00000000	0.00000000
